<?xml version="1.0" standalone="no"?>
<!DOCTYPE svg PUBLIC "-//W3C//DTD SVG 20010904//EN"
 "http://www.w3.org/TR/2001/REC-SVG-20010904/DTD/svg10.dtd">
<svg version="1.0" xmlns="http://www.w3.org/2000/svg"
 width="700.000000pt" height="700.000000pt" viewBox="0 0 700.000000 700.000000"
 preserveAspectRatio="xMidYMid meet">
<metadata>
Created by potrace 1.14, written by Peter Selinger 2001-2017
</metadata>
<g transform="translate(0.000000,700.000000) scale(0.100000,-0.100000)"
fill="#000000" stroke="none">
<path d="M1314 6649 c8 -33 128 -675 192 -1019 58 -313 124 -667 129 -688 l6
-23 714 2 c436 2 719 -1 724 -7 5 -5 12 -25 15 -44 3 -19 28 -149 56 -288 27
-140 52 -268 55 -285 3 -18 8 -39 11 -48 2 -9 7 -32 9 -50 3 -19 20 -108 38
-199 l33 -165 -26 -3 c-110 -13 -202 -66 -259 -151 -23 -34 -39 -61 -36 -61 3
0 1 -8 -4 -17 -32 -61 -16 -193 33 -277 41 -70 151 -144 216 -146 17 -1 6 -8
-36 -24 -103 -38 -157 -87 -199 -179 -82 -178 11 -386 197 -443 l57 -18 -54
-17 c-196 -61 -286 -274 -193 -458 66 -130 164 -180 350 -182 75 -1 102 -4 81
-9 -90 -21 -180 -96 -223 -185 -35 -75 -34 -189 3 -269 33 -72 91 -130 166
-164 l56 -27 487 0 487 0 6 -35 c19 -99 91 -261 168 -374 49 -72 190 -216 265
-269 86 -60 249 -135 357 -163 131 -33 294 -43 330 -20 61 40 69 120 16 170
-25 24 -40 29 -93 32 -308 20 -549 155 -713 401 -49 75 -120 244 -105 253 4 3
171 5 370 4 l363 0 19 -25 c11 -13 29 -35 41 -49 50 -57 373 -426 382 -436 5
-6 35 -39 65 -74 30 -35 60 -68 65 -74 6 -6 37 -42 70 -81 33 -38 74 -84 90
-102 l30 -33 230 0 c127 -1 249 -1 273 0 l42 0 0 878 0 877 -33 36 c-17 20
-68 81 -112 134 -44 54 -84 103 -90 109 -16 18 -98 116 -231 275 l-79 95 -1
390 c-1 369 -2 396 -23 476 -66 254 -233 461 -466 577 -135 68 -255 90 -479
91 -88 1 -202 1 -252 1 l-92 1 0 330 0 329 74 36 c123 59 215 171 243 296 6
24 10 181 10 349 0 278 -2 311 -21 370 -53 171 -204 288 -391 305 -37 4 -77 8
-87 10 -10 2 -50 6 -87 10 -37 3 -81 8 -96 11 -15 3 -44 7 -65 9 -63 5 -159
16 -179 19 -10 2 -52 7 -93 11 -41 4 -82 8 -90 10 -8 2 -49 6 -90 10 -41 3
-82 8 -90 10 -8 2 -44 7 -80 10 -36 3 -78 8 -95 10 -16 2 -57 7 -90 10 -33 4
-73 8 -90 10 -16 2 -59 7 -95 11 -36 3 -73 8 -83 10 -10 2 -46 6 -80 9 -34 3
-73 8 -87 10 -14 3 -52 7 -86 10 -33 3 -76 7 -95 10 -19 2 -61 7 -94 10 -33 3
-71 8 -85 10 -14 2 -52 7 -85 10 -33 3 -71 8 -85 10 -14 2 -56 6 -93 10 -37 3
-76 8 -85 9 -9 2 -48 7 -87 11 -78 8 -69 7 -295 34 -91 11 -192 22 -225 26
-33 3 -73 7 -90 10 -16 2 -50 7 -75 9 -118 13 -167 18 -185 21 -11 2 -56 6
-98 10 l-78 7 5 -23z"/>
<path d="M565 6439 c-27 -15 -86 -80 -139 -154 -142 -196 -207 -408 -202 -660
4 -204 50 -368 148 -535 34 -58 114 -163 157 -204 33 -33 47 -39 83 -39 53 -1
94 25 104 68 8 29 8 36 5 70 0 9 -20 37 -44 63 -91 100 -153 204 -196 331 -31
90 -36 129 -36 266 0 141 6 182 41 284 42 121 99 219 179 306 60 66 67 86 50
152 -12 48 -101 78 -150 52z"/>
<path d="M883 6135 c-67 -28 -170 -191 -204 -322 -57 -221 1 -450 155 -610 48
-51 89 -62 138 -39 65 31 80 112 32 171 -118 144 -154 287 -109 441 13 46 59
123 117 196 68 86 -27 206 -129 163z"/>
</g>
</svg>
