<svg id="Layer_3" enable-background="new 0 0 64 64" height="512" viewBox="0 0 64 64" width="512" xmlns="http://www.w3.org/2000/svg"><g><path d="m4 55v5c0 1.105.895 2 2 2h52c1.105 0 2-.895 2-2v-5" fill="#8d353e"/><path d="m12 26h-6c-2.209 0-4 1.791-4 4v22c0 2.209 1.791 4 4 4h52c2.209 0 4-1.791 4-4v-22c0-2.209-1.791-4-4-4h-6" fill="#ba4753"/><path d="m52 26h-40-6c-2.209 0-4 1.791-4 4v22c0 .347.058.679.141 1h50.859c2.209 0 4-1.791 4-4v-23z" fill="#e1656e"/><path d="m58 26v8h-52v-8" fill="#8d353e"/><path d="m52 34v-28l-4-4-4 4-4-4-4 4-4-4-4 4-4-4-4 4-4-4-4 4v28" fill="#c8cded"/><path d="m41 30c2.209 0 4-1.791 4-4v-21l-1 1-4-4-4 4-4-4-4 4-4-4-4 4-4-4-4 4v24z" fill="#e2e7f6"/><circle cx="55" cy="49" fill="#8d353e" r="3"/><circle cx="45" cy="49" fill="#8d353e" r="3"/><circle cx="9" cy="49" fill="#8d353e" r="3"/><g><path d="m16 29h2v2h-2z" fill="#fff"/></g><g><path d="m20 29h2v2h-2z" fill="#fff"/></g><g><path d="m24 29h24v2h-24z" fill="#fff"/></g><path d="m24 3h16v30h-16z" fill="#4c506e" transform="matrix(0 1 -1 0 50 -14)"/><path d="m17 10v12h18c1.105 0 2-.895 2-2v-10z" fill="#787faa"/><g><path d="m20 13h2v10h-2z" fill="#2c2f41"/></g><g><path d="m38 13h2v10h-2z" fill="#2c2f41"/></g><g><path d="m41 13h2v10h-2z" fill="#2c2f41"/></g><g fill="#2c2f41"><path d="m18.5 17.5h10v1h-10z" transform="matrix(0 1 -1 0 41.5 -5.5)"/><path d="m20.5 17.5h10v1h-10z" transform="matrix(0 1 -1 0 43.5 -7.5)"/><path d="m22.5 17.5h10v1h-10z" transform="matrix(0 1 -1 0 45.5 -9.5)"/><path d="m25.5 16.5h10v3h-10z" transform="matrix(0 1 -1 0 48.5 -12.5)"/><path d="m29 17h10v2h-10z" transform="matrix(0 1 -1 0 52 -16)"/><path d="m31.5 17.5h10v1h-10z" transform="matrix(0 1 -1 0 54.5 -18.5)"/></g><path d="m54.5 60h-45c-.828 0-1.5-.672-1.5-1.5 0-.828.672-1.5 1.5-1.5h45c.828 0 1.5.672 1.5 1.5 0 .828-.672 1.5-1.5 1.5z" fill="#ba4753"/><path d="m53.5 40h-45c-.828 0-1.5-.672-1.5-1.5 0-.828.672-1.5 1.5-1.5h45c.828 0 1.5.672 1.5 1.5 0 .828-.672 1.5-1.5 1.5z" fill="#f29b99"/><path d="m58 25h-5v-19c0-.266-.105-.52-.293-.707l-4-4c-.391-.391-1.023-.391-1.414 0l-3.293 3.293-3.293-3.293c-.391-.391-1.023-.391-1.414 0l-3.293 3.293-3.293-3.293c-.391-.391-1.023-.391-1.414 0l-3.293 3.293-3.293-3.293c-.391-.391-1.023-.391-1.414 0l-3.293 3.293-3.293-3.293c-.391-.391-1.023-.391-1.414 0l-4 4c-.188.187-.293.441-.293.707v19h-5c-2.757 0-5 2.243-5 5v22c0 1.627.793 3.061 2 3.974v4.026c0 1.654 1.346 3 3 3h52c1.654 0 3-1.346 3-3v-4.026c1.207-.914 2-2.348 2-3.974v-22c0-2.757-2.243-5-5-5zm-1 2v6h-4v-6zm-41-23.586 3.293 3.293c.391.391 1.023.391 1.414 0l3.293-3.293 3.293 3.293c.391.391 1.023.391 1.414 0l3.293-3.293 3.293 3.293c.391.391 1.023.391 1.414 0l3.293-3.293 3.293 3.293c.391.391 1.023.391 1.414 0l3.293-3.293 3 3v26.586h-38v-26.586zm-5 29.586h-4v-6h4zm48 27c0 .552-.449 1-1 1h-52c-.551 0-1-.448-1-1v-3.101c.323.066.658.101 1 .101h52c.342 0 .677-.035 1-.101zm2-8c0 1.654-1.346 3-3 3h-52c-1.654 0-3-1.346-3-3v-22c0-1.302.839-2.402 2-2.816v6.816c0 .553.448 1 1 1h52c.552 0 1-.447 1-1v-6.816c1.161.414 2 1.514 2 2.816z"/><path d="m55 45c-2.206 0-4 1.794-4 4s1.794 4 4 4 4-1.794 4-4-1.794-4-4-4zm0 6c-1.103 0-2-.897-2-2s.897-2 2-2 2 .897 2 2-.897 2-2 2z"/><path d="m45 45c-2.206 0-4 1.794-4 4s1.794 4 4 4 4-1.794 4-4-1.794-4-4-4zm0 6c-1.103 0-2-.897-2-2s.897-2 2-2 2 .897 2 2-.897 2-2 2z"/><path d="m9 45c-2.206 0-4 1.794-4 4s1.794 4 4 4 4-1.794 4-4-1.794-4-4-4zm0 6c-1.103 0-2-.897-2-2s.897-2 2-2 2 .897 2 2-.897 2-2 2z"/><path d="m17 27h30c.552 0 1-.447 1-1v-16c0-.553-.448-1-1-1h-30c-.552 0-1 .447-1 1v16c0 .553.448 1 1 1zm1-16h28v14h-28z"/><path d="m20 13h2v10h-2z"/><path d="m38 13h2v10h-2z"/><path d="m41 13h2v10h-2z"/><path d="m23 13h1v10h-1z"/><path d="m25 13h1v10h-1z"/><path d="m27 13h1v10h-1z"/><path d="m29 13h3v10h-3z"/><path d="m33 13h2v10h-2z"/><path d="m36 13h1v10h-1z"/><path d="m16 29h2v2h-2z"/><path d="m20 29h2v2h-2z"/><path d="m24 29h24v2h-24z"/></g></svg>