<svg id="Layer_3" height="512" viewBox="0 0 64 64" width="512" xmlns="http://www.w3.org/2000/svg" data-name="Layer 3"><path d="m17 54h-8a2 2 0 0 1 -2-2v-24a2 2 0 0 1 2-2h46a2 2 0 0 1 2 2v24a2 2 0 0 1 -2 2h-8" fill="#3b5892"/><path d="m54 49v-23h-45a2 2 0 0 0 -2 2v23h45a2 2 0 0 0 2-2z" fill="#4c6cb5"/><path d="m13 38h38v6h-38z" fill="#213d68"/><path d="m13 10h38v16h-38z" fill="#213d68"/><path d="m17 26v-24l3 3 3-3 3 3 3-3 3 3 3-3 3 3 3-3 3 3 3-3v24" fill="#c8cded"/><path d="m42.02 22.816a2 2 0 0 0 2-2v-15.836l-.02.02-3-3-3 3-3-3-3 3-3-3-3 3-3-3-3 3-3-3v20.816z" fill="#e2e7f6"/><path d="m17 42h30v20h-30z" fill="#c8cded"/><path d="m44 57v-15h-27v17h25a2 2 0 0 0 2-2z" fill="#e2e7f6"/><path d="m36.008 13v-1a3 3 0 0 0 -3-3h-.008v-1h-2v1a3 3 0 0 0 -2.992 3v1a3 3 0 0 0 2.992 3v3a1 1 0 0 1 -.992-1v-1h-2v1a3 3 0 0 0 2.992 3v1h2v-1h.008a3 3 0 0 0 3-3v-1a3 3 0 0 0 -3-3h-.008v-3h.008a1 1 0 0 1 1 1v1zm-6 0v-1a1 1 0 0 1 .992-1v3a1 1 0 0 1 -.992-1zm3 3a1 1 0 0 1 1 1v1a1 1 0 0 1 -1 1h-.008v-3z" fill="#559b2d"/><path d="m52 33a2 2 0 1 1 2-2 2 2 0 0 1 -2 2z" fill="#ccc"/><path d="m46 33a2 2 0 1 1 2-2 2 2 0 0 1 -2 2z" fill="#ccc"/><path d="m55 25h-3v-15a1 1 0 0 0 -1-1h-3v-7a1 1 0 0 0 -1.707-.707l-2.293 2.293-2.293-2.293a1 1 0 0 0 -1.414 0l-2.293 2.293-2.293-2.293a1 1 0 0 0 -1.414 0l-2.293 2.293-2.293-2.293a1 1 0 0 0 -1.414 0l-2.293 2.293-2.293-2.293a1 1 0 0 0 -1.414 0l-2.293 2.293-2.293-2.293a1 1 0 0 0 -1.707.707v7h-3a1 1 0 0 0 -1 1v15h-3a3 3 0 0 0 -3 3v24a3 3 0 0 0 3 3h7v7a1 1 0 0 0 1 1h30a1 1 0 0 0 1-1v-7h7a3 3 0 0 0 3-3v-24a3 3 0 0 0 -3-3zm-5-14v14h-2v-14zm-30.707-5.293a1 1 0 0 0 1.414 0l2.293-2.293 2.293 2.293a1 1 0 0 0 1.414 0l2.293-2.293 2.293 2.293a1 1 0 0 0 1.414 0l2.293-2.293 2.293 2.293a1 1 0 0 0 1.414 0l2.293-2.293 2.293 2.293a1 1 0 0 0 1.414 0l1.293-1.293v20.586h-28v-20.586zm-5.293 5.293h2v14h-2zm32 50h-28v-18h28zm-29-20a1 1 0 0 0 -1 1v1h-2v-4h36v4h-2v-1a1 1 0 0 0 -1-1zm39 11a1 1 0 0 1 -1 1h-7v-8h3a1 1 0 0 0 1-1v-6a1 1 0 0 0 -1-1h-38a1 1 0 0 0 -1 1v6a1 1 0 0 0 1 1h3v8h-7a1 1 0 0 1 -1-1v-24a1 1 0 0 1 1-1h46a1 1 0 0 1 1 1z"/><path d="m31 21v1h2v-1h.008a3 3 0 0 0 3-3v-1a3 3 0 0 0 -3-3h-.008v-3h.008a1 1 0 0 1 1 1v1h2v-1a3 3 0 0 0 -3-3h-.008v-1h-2v1a3 3 0 0 0 -2.992 3v1a3 3 0 0 0 2.992 3v3a1 1 0 0 1 -.992-1v-1h-2v1a3 3 0 0 0 2.992 3zm2.008-5a1 1 0 0 1 1 1v1a1 1 0 0 1 -1 1h-.008v-3zm-3-3v-1a1 1 0 0 1 .992-1v3a1 1 0 0 1 -.992-1z"/><circle cx="52" cy="31" r="2"/><circle cx="46" cy="31" r="2"/></svg>