<svg id="Capa_1" enable-background="new 0 0 512 512" height="512" viewBox="0 0 512 512" width="512" xmlns="http://www.w3.org/2000/svg"><g><g><g><path d="m292.38 69.66h34.56v84.54h-34.56z" fill="#eceaec"/></g><g><path d="m384.397 262.63h-335.153l-41.744 101.22h418.64z" fill="#80b4fb"/></g><g><g><g><path d="m406.14 504.5h-378.64c-11.046 0-20-8.954-20-20v-120.65h418.64v120.65c0 11.046-8.954 20-20 20z" fill="#3a8cd6"/></g></g></g><g><g><path d="m33.78 484.5v-120.65h-26.28v120.65c0 11.046 8.954 20 20 20h26.28c-11.046 0-20-8.954-20-20z" fill="#0280ce"/></g></g><g><g><g><path d="m384.397 262.63h-335.153v-101.525c0-11.046 8.954-20 20-20h295.153c11.046 0 20 8.954 20 20z" fill="#3a8cd6"/></g></g></g><g><path d="m49.244 262.63-41.744 101.22h26.4l41.744-101.22z" fill="#61a2f9"/></g><g><g><path d="m95.644 141.105h-26.4c-11.046 0-20 8.954-20 20v101.525h26.4v-101.525c0-11.045 8.954-20 20-20z" fill="#0280ce"/></g></g><g><path d="m327.92 358.385c0 1.834.052 3.655.15 5.465h98.071l-39.937-96.839c-34.393 16.063-58.284 50.978-58.284 91.374z" fill="#61a2f9"/></g><g><path d="m328.07 363.85c.665 12.388 3.581 24.187 8.34 35h44.731c5.523 0 10 4.477 10 10v43.057c10.865 4.38 22.659 6.925 35 7.235v-95.292z" fill="#0593fc"/></g><g><path d="m42.5 459.5v-50.65c0-5.523 4.477-10 10-10h328.641c5.523 0 10 4.477 10 10v50.65c0 5.523-4.477 10-10 10h-328.641c-5.523 0-10-4.477-10-10z" fill="#eceaec"/></g><g><path d="m391.141 451.907v-43.057c0-5.523-4.477-10-10-10h-44.731c10.584 24.05 30.298 43.207 54.731 53.057z" fill="#dad8db"/></g><g><path d="m68.06 459.5v-50.65c0-5.523 4.477-10 10-10h-25.56c-5.523 0-10 4.477-10 10v50.65c0 5.523 4.477 10 10 10h25.56c-5.523 0-10-4.477-10-10z" fill="#dad8db"/></g><g><path d="m79.844 44.265c16.9 0 30.6 13.7 30.6 30.6v151.123h77.58v-151.123c0-16.9-13.7-30.6-30.6-30.6z" fill="#eceaec"/></g><g><path d="m79.844 44.265c-16.9 0-30.6 13.7-30.6 30.6v30.48h61.2v-30.48c0-16.9-13.7-30.6-30.6-30.6z" fill="#dad8db"/></g><g><path d="m374.397 81.03h-128.977c-5.523 0-10-4.477-10-10v-53.53c0-5.523 4.477-10 10-10h128.977c5.523 0 10 4.477 10 10v53.53c0 5.523-4.478 10-10 10z" fill="#e5646e"/></g><g><path d="m254.5 71.03v-53.53c0-5.523 4.477-10 10-10h-19.08c-5.523 0-10 4.477-10 10v53.53c0 5.523 4.477 10 10 10h19.08c-5.523 0-10-4.477-10-10z" fill="#db4655"/></g><g><path d="m338.49 225.988h-93.07c-5.523 0-10-4.477-10-10v-28.24c0-5.523 4.477-10 10-10h93.07c5.523 0 10 4.477 10 10v28.24c0 5.523-4.477 10-10 10z" fill="#eceaec"/></g><g><path d="m253.373 215.988v-28.24c0-5.523 4.477-10 10-10h-17.953c-5.523 0-10 4.477-10 10v28.24c0 5.523 4.477 10 10 10h17.953c-5.523 0-10-4.477-10-10z" fill="#dad8db"/></g><g><circle cx="428.71" cy="358.385" fill="#ffc269" r="75.79"/></g><g><path d="m373.08 358.385c0-38.438 28.621-70.17 65.71-75.103-3.3-.439-6.66-.688-10.08-.688-41.858 0-75.79 33.932-75.79 75.79s33.932 75.79 75.79 75.79c3.42 0 6.78-.249 10.08-.688-37.089-4.931-65.71-36.663-65.71-75.101z" fill="#ffa95f"/></g></g><g><path d="m52.5 391.35c-9.649 0-17.5 7.851-17.5 17.5v50.65c0 9.649 7.851 17.5 17.5 17.5h328.641c9.649 0 17.5-7.851 17.5-17.5v-23.465c9.334 3.627 19.469 5.639 30.069 5.639 45.926 0 83.29-37.364 83.29-83.29 0-18.791-6.438-37.216-18.128-51.88-2.58-3.239-7.3-3.772-10.539-1.189-3.239 2.581-3.771 7.301-1.189 10.539 9.719 12.193 14.856 26.899 14.856 42.53 0 37.655-30.635 68.29-68.29 68.29s-68.29-30.635-68.29-68.29 30.635-68.29 68.29-68.29c11.078 0 21.643 2.567 31.4 7.63 3.677 1.907 8.203.474 10.111-3.203 1.907-3.677.474-8.204-3.203-10.111-11.745-6.094-24.992-9.315-38.309-9.315-10.165 0-19.907 1.837-28.922 5.186l-7.892-19.136v-100.04c0-15.163-12.337-27.5-27.5-27.5h-29.955v-45.075h39.956c9.649 0 17.5-7.851 17.5-17.5v-53.53c0-9.649-7.851-17.5-17.5-17.5h-128.976c-9.649 0-17.5 7.851-17.5 17.5v53.53c0 9.649 7.851 17.5 17.5 17.5h39.46v45.075h-64.5c-4.142 0-7.5 3.357-7.5 7.5s3.358 7.5 7.5 7.5h144.016c6.893 0 12.5 5.607 12.5 12.5v94.025h-320.152v-94.025c0-6.893 5.607-12.5 12.5-12.5h10.6c4.142 0 7.5-3.357 7.5-7.5s-3.358-7.5-7.5-7.5h-10.6c-15.164 0-27.5 12.337-27.5 27.5v100.04l-41.142 99.759c-.009.022-.018.043-.027.065l-.009.021c-.005.013-.008.027-.014.041-.1.246-.185.5-.259.759-.021.074-.039.149-.057.224-.05.2-.093.402-.127.608-.015.091-.03.182-.042.273-.025.193-.039.39-.049.587-.005.092-.013.184-.014.276 0 .031-.005.061-.005.092v120.65c.001 15.163 12.337 27.5 27.501 27.5h378.641c15.163 0 27.5-12.337 27.5-27.5v-16.74c0-4.143-3.357-7.5-7.5-7.5s-7.5 3.357-7.5 7.5v16.74c0 6.893-5.607 12.5-12.5 12.5h-378.641c-6.893 0-12.5-5.607-12.5-12.5v-113.15h331.435c1.098 6.992 3.073 13.695 5.802 20zm190.42-320.32v-53.53c0-1.379 1.122-2.5 2.5-2.5h128.977c1.379 0 2.5 1.121 2.5 2.5v53.53c0 1.379-1.121 2.5-2.5 2.5h-128.977c-1.378 0-2.5-1.121-2.5-2.5zm56.96 17.5h19.561v45.075h-19.561zm83.761 339.842v31.128c0 1.379-1.121 2.5-2.5 2.5h-328.641c-1.378 0-2.5-1.121-2.5-2.5v-50.65c0-1.379 1.122-2.5 2.5-2.5h308.181c6.171 8.725 13.97 16.213 22.96 22.022zm-329.378-158.241h325.114l6.864 16.644c-23.87 14.21-40.054 40.005-40.769 69.575h-326.766z"/><path d="m224.021 426.675h-14.4c-4.142 0-7.5 3.357-7.5 7.5s3.358 7.5 7.5 7.5h14.4c4.142 0 7.5-3.357 7.5-7.5s-3.358-7.5-7.5-7.5z"/><path d="m49.244 112.845h53.7v105.644h-8.07c-4.142 0-7.5 3.357-7.5 7.5s3.358 7.5 7.5 7.5h15.57 77.58 15.57c4.142 0 7.5-3.357 7.5-7.5s-3.358-7.5-7.5-7.5h-8.07v-143.624c0-21.009-17.092-38.101-38.1-38.101h-77.58c-21.008 0-38.1 17.092-38.1 38.101v30.479c0 4.143 3.358 7.501 7.5 7.501zm108.18-61.08c12.737 0 23.1 10.363 23.1 23.101v143.623h-62.58v-143.624c0-8.679-2.916-16.688-7.82-23.101h47.3zm-100.68 23.1c0-12.737 10.363-23.101 23.1-23.101s23.1 10.363 23.1 23.101v22.979h-46.2z"/><path d="m131.455 287.98h-15.3c-4.142 0-7.5 3.357-7.5 7.5s3.358 7.5 7.5 7.5h15.3c4.142 0 7.5-3.357 7.5-7.5s-3.358-7.5-7.5-7.5z"/><path d="m193.465 287.98h-15.3c-4.142 0-7.5 3.357-7.5 7.5s3.358 7.5 7.5 7.5h15.3c4.142 0 7.5-3.357 7.5-7.5s-3.358-7.5-7.5-7.5z"/><path d="m255.475 287.98h-15.3c-4.142 0-7.5 3.357-7.5 7.5s3.358 7.5 7.5 7.5h15.3c4.142 0 7.5-3.357 7.5-7.5s-3.358-7.5-7.5-7.5z"/><path d="m302.186 302.98h15.3c4.143 0 7.5-3.357 7.5-7.5s-3.357-7.5-7.5-7.5h-15.3c-4.143 0-7.5 3.357-7.5 7.5s3.357 7.5 7.5 7.5z"/><path d="m131.455 321.165h-15.3c-4.142 0-7.5 3.357-7.5 7.5s3.358 7.5 7.5 7.5h15.3c4.142 0 7.5-3.357 7.5-7.5s-3.358-7.5-7.5-7.5z"/><path d="m193.465 321.165h-15.3c-4.142 0-7.5 3.357-7.5 7.5s3.358 7.5 7.5 7.5h15.3c4.142 0 7.5-3.357 7.5-7.5s-3.358-7.5-7.5-7.5z"/><path d="m255.475 321.165h-15.3c-4.142 0-7.5 3.357-7.5 7.5s3.358 7.5 7.5 7.5h15.3c4.142 0 7.5-3.357 7.5-7.5s-3.358-7.5-7.5-7.5z"/><path d="m317.485 321.165h-15.3c-4.143 0-7.5 3.357-7.5 7.5s3.357 7.5 7.5 7.5h15.3c4.143 0 7.5-3.357 7.5-7.5s-3.357-7.5-7.5-7.5z"/><path d="m338.49 233.488c9.649 0 17.5-7.851 17.5-17.5v-28.24c0-9.649-7.851-17.5-17.5-17.5h-93.07c-9.649 0-17.5 7.851-17.5 17.5v28.24c0 9.649 7.851 17.5 17.5 17.5zm-95.57-17.5v-28.24c0-1.379 1.122-2.5 2.5-2.5h93.07c1.379 0 2.5 1.121 2.5 2.5v28.24c0 1.379-1.121 2.5-2.5 2.5h-93.07c-1.378 0-2.5-1.121-2.5-2.5z"/><path d="m138.3 112.845h18.96c4.142 0 7.5-3.357 7.5-7.5s-3.358-7.5-7.5-7.5h-18.96c-4.142 0-7.5 3.357-7.5 7.5s3.358 7.5 7.5 7.5z"/><path d="m138.3 148.605h18.96c4.142 0 7.5-3.357 7.5-7.5s-3.358-7.5-7.5-7.5h-18.96c-4.142 0-7.5 3.357-7.5 7.5s3.358 7.5 7.5 7.5z"/><path d="m138.3 184.366h18.96c4.142 0 7.5-3.357 7.5-7.5s-3.358-7.5-7.5-7.5h-18.96c-4.142 0-7.5 3.357-7.5 7.5s3.358 7.5 7.5 7.5z"/><path d="m356.872 36.765h-93.928c-4.143 0-7.5 3.357-7.5 7.5s3.357 7.5 7.5 7.5h93.928c4.143 0 7.5-3.357 7.5-7.5s-3.357-7.5-7.5-7.5z"/><path d="m428.71 331.473c5.356 0 9.715 4.358 9.715 9.715 0 4.143 3.357 7.5 7.5 7.5s7.5-3.357 7.5-7.5c0-11.014-7.243-20.365-17.215-23.548v-9.104c0-4.143-3.357-7.5-7.5-7.5s-7.5 3.357-7.5 7.5v9.104c-9.972 3.183-17.215 12.534-17.215 23.548 0 13.628 11.087 24.716 24.715 24.716.187 0 .372-.007.556-.021 5.099.289 9.159 4.528 9.159 9.699 0 5.356-4.358 9.715-9.715 9.715s-9.715-4.358-9.715-9.715c0-4.143-3.357-7.5-7.5-7.5s-7.5 3.357-7.5 7.5c0 11.014 7.243 20.365 17.215 23.548v9.105c0 4.143 3.357 7.5 7.5 7.5s7.5-3.357 7.5-7.5v-9.105c9.972-3.183 17.215-12.534 17.215-23.548 0-13.628-11.087-24.715-24.715-24.715-.187 0-.372.007-.556.021-5.099-.289-9.159-4.529-9.159-9.7 0-5.357 4.359-9.715 9.715-9.715z"/></g></g></svg>