<svg id="Layer_1" enable-background="new 0 0 512 512" height="512" viewBox="0 0 512 512" width="512" xmlns="http://www.w3.org/2000/svg"><g><g clip-rule="evenodd" fill-rule="evenodd"><path d="m186 70h50 40.001 50c5.5 0 10-4.5 10-10v-40c0-5.5-4.5-10-10-10h-140.001c-5.5 0-10 4.5-10 10v40c0 5.5 4.5 10 10 10z" fill="#6d91ac"/><path d="m235.999 70h40.001v40.001h-40.001z" fill="#8aa7bd"/><path d="m276.001 110.002h-40.001-120c-11 0-20 9-20 20v100.003h320v-100.004c0-11-9-20-20-20h-119.999zm-109.998 40.001h179.994c11 0 20 9.005 20 20s-9.005 20-20 20h-179.994c-10.995 0-20-9-20-20 .001-11 9-20 20-20z" fill="#c5d3de"/><path d="m345.997 150.003h-179.994c-11 0-20 9-20 20s9.005 20 20 20h179.994c10.995 0 20-9.005 20-20s-9-20-20-20z" fill="#ccf5fc"/><path d="m128.765 306.003 12.765-39.999h57.889 56.581 56.58 57.889l12.765 39.999 12.766 39.999h-70.8-69.2-69.199-70.801zm287.235-75.998h-320l-86 151.995h492z" fill="#c5d3de"/><g fill="#fff"><path d="m193.11 306.003 6.31-40h-57.889l-12.766 40z"/><path d="m193.11 306.003h-64.345l-12.765 39.999h70.801z"/><path d="m199.42 266.003-6.31 40h62.89v-40z"/><path d="m256 306.003h-62.89l-6.309 39.999h69.199z"/><path d="m256 266.003v40h62.89l-6.309-40z"/><path d="m318.89 306.003h-62.89v39.999h69.2z"/><path d="m312.581 266.003 6.309 40h64.345l-12.765-40z"/></g><path d="m383.235 306.003h-64.345l6.31 39.999h70.8z" fill="#ff5d7d"/><path d="m502 382h-492v100c0 11 9 20 20 20h452c11 0 20-8.999 20-20zm-426 40h360c11 0 20 9 20 20s-9 20-20 20h-360c-11 0-20-9-20-20s9-20 20-20z" fill="#c5d3de"/><path d="m436 422h-360c-11 0-20 9-20 20s9 20 20 20h360c11 0 20-9 20-20s-9-20-20-20z" fill="#8aa7bd"/></g><g><path d="m510.704 377.076-84.704-149.704v-97.371c0-16.542-13.458-30-30-30h-109.999v-20.001h40c11.028 0 20-8.972 20-20v-40c0-11.028-8.972-20-20-20h-140.001c-11.028 0-20 8.972-20 20v40c0 11.028 8.972 20 20 20h40v20.001h-110c-16.542 0-30 13.458-30 30v97.371l-84.704 149.704c-.849 1.502-1.296 3.198-1.296 4.924v100c0 16.542 13.458 30 30 30h452c16.542 0 30-13.458 30-30v-100c0-1.726-.447-3.422-1.296-4.924zm-324.706-357.076h140.002v40h-140zm60.002 60h20.001v20.001h-20.001zm-144.168 160.005h109.165c5.523 0 10-4.477 10-10s-4.477-10-10-10h-104.997v-90.003c0-5.514 4.486-10 10-10h280c5.514 0 10 4.486 10 10v90.003h-105.003c-5.523 0-10 4.477-10 10s4.477 10 10 10h109.172l74.683 131.995h-457.704zm380.168 251.995h-452c-5.514 0-10-4.486-10-10v-90h472v90c0 5.514-4.486 10-10 10z"/><path d="m436 412h-360c-16.542 0-30 13.458-30 30s13.458 30 30 30h360c16.542 0 30-13.458 30-30s-13.458-30-30-30zm0 40h-360c-5.514 0-10-4.486-10-10s4.486-10 10-10h360c5.514 0 10 4.486 10 10s-4.486 10-10 10z"/><path d="m375.997 170.003c0-16.542-13.458-30-30-30h-179.994c-16.542 0-30 13.458-30 30s13.458 30 30 30h179.994c16.542 0 30-13.458 30-30zm-219.994 0c0-5.514 4.486-10 10-10h179.994c5.514 0 10 4.486 10 10s-4.486 10-10 10h-179.994c-5.514 0-10-4.486-10-10z"/><path d="m106.473 342.961c-1.985 5.69 2.54 13.34 9.603 13.041h279.849c5.799.115 11.932-5.817 9.603-13.041l-25.498-79.896c-1.22-3.89-5.095-7.215-9.668-7.063h-228.701c-4.017-.033-8.488 2.652-9.69 7.063zm81.246-66.958-3.155 19.999h-42.11l6.382-19.999zm58.281 0v19.999h-41.188l3.155-19.999zm58.034 0 3.155 19.999h-41.189v-19.999zm59.129 0 6.383 19.999h-42.109l-3.155-19.999zm-29.416 59.999-3.155-20h45.337l6.383 20zm-204.058 0 6.383-20h45.338l-3.155 20zm71.968-20h44.343v20h-47.498zm64.343 0h44.344l3.155 20h-47.499z"/><path d="m255.993 220.005c-5.523 0-9.996 4.477-9.996 10s4.48 10 10.003 10 10-4.477 10-10-4.477-10-10-10z"/></g></g></svg>