<svg id="Capa_1" enable-background="new 0 0 512 512" height="512" viewBox="0 0 512 512" width="512" xmlns="http://www.w3.org/2000/svg"><g><g><g><path d="m475.914 232.783h-252.071v-125.781h252.071c2.803 0 5.075 2.272 5.075 5.075v115.631c0 2.803-2.272 5.075-5.075 5.075z" fill="#fff5c6"/></g><g><path d="m223.843 107.002h41.603v125.782h-41.603z" fill="#fef0ae"/></g><g><g><path d="m259.99 206.781c-4.142 0-7.5-3.357-7.5-7.5v-58.777c0-4.143 3.358-7.5 7.5-7.5s7.5 3.357 7.5 7.5v58.777c0 4.143-3.358 7.5-7.5 7.5z" fill="#465a61"/></g><g><path d="m284.676 206.781c-4.142 0-7.5-3.357-7.5-7.5v-58.777c0-4.143 3.358-7.5 7.5-7.5s7.5 3.357 7.5 7.5v58.777c0 4.143-3.358 7.5-7.5 7.5z" fill="#465a61"/></g><g><path d="m321.412 206.781c-4.142 0-7.5-3.357-7.5-7.5v-58.777c0-4.143 3.358-7.5 7.5-7.5s7.5 3.357 7.5 7.5v58.777c0 4.143-3.358 7.5-7.5 7.5z" fill="#465a61"/></g><g><path d="m346.098 206.781c-4.142 0-7.5-3.357-7.5-7.5v-58.777c0-4.143 3.358-7.5 7.5-7.5s7.5 3.357 7.5 7.5v58.777c0 4.143-3.358 7.5-7.5 7.5z" fill="#465a61"/></g><g><path d="m370.784 206.781c-4.142 0-7.5-3.357-7.5-7.5v-58.777c0-4.143 3.358-7.5 7.5-7.5s7.5 3.357 7.5 7.5v58.777c0 4.143-3.358 7.5-7.5 7.5z" fill="#465a61"/></g><g><path d="m395.47 206.781c-4.142 0-7.5-3.357-7.5-7.5v-58.777c0-4.143 3.358-7.5 7.5-7.5s7.5 3.357 7.5 7.5v58.777c0 4.143-3.358 7.5-7.5 7.5z" fill="#465a61"/></g><g><path d="m420.156 206.781c-4.142 0-7.5-3.357-7.5-7.5v-58.777c0-4.143 3.358-7.5 7.5-7.5s7.5 3.357 7.5 7.5v58.777c0 4.143-3.358 7.5-7.5 7.5z" fill="#465a61"/></g><g><path d="m444.842 206.781c-4.142 0-7.5-3.357-7.5-7.5v-58.777c0-4.143 3.358-7.5 7.5-7.5s7.5 3.357 7.5 7.5v58.777c0 4.143-3.358 7.5-7.5 7.5z" fill="#465a61"/></g></g><g><path d="m504.5 126.551c-4.142 0-7.5-3.357-7.5-7.5v-28.942h-28.941c-4.142 0-7.5-3.357-7.5-7.5s3.358-7.5 7.5-7.5h36.441c4.142 0 7.5 3.357 7.5 7.5v36.441c0 4.143-3.358 7.501-7.5 7.501z" fill="#01c0fa"/></g><g><path d="m504.5 264.088h-36.441c-4.142 0-7.5-3.357-7.5-7.5s3.358-7.5 7.5-7.5h28.941v-28.941c0-4.143 3.358-7.5 7.5-7.5s7.5 3.357 7.5 7.5v36.441c0 4.142-3.358 7.5-7.5 7.5z" fill="#01c0fa"/></g></g><g><g><g><path d="m27.441 311.118-20.427 6.637c-4.182 1.359-7.014 5.257-7.014 9.655v30.705c0 4.398 2.832 8.295 7.014 9.654l20.427 6.637z" fill="#01c0fa"/><g><path d="m201.805 25.009h-167.893c-14.015 0-25.377 11.362-25.377 25.377v216.345c0 3.333 1.094 6.574 3.113 9.226l11.68 15.335c2.02 2.652 3.113 5.893 3.113 9.226v166.171c0 11.212 9.089 20.302 20.302 20.302h141.603c11.212 0 20.302-9.089 20.302-20.302v-166.029c0-3.42 1.151-6.741 3.269-9.427l11.997-15.218c2.117-2.686 3.269-6.006 3.269-9.427v-216.202c0-14.016-11.362-25.377-25.378-25.377z" fill="#596c76"/></g><path d="m68.765 466.689v-166.171c0-3.333-1.094-6.574-3.113-9.226l-11.68-15.335c-1.841-2.417-2.902-5.324-3.077-8.343h-2.019c-6.934 0-12.575-5.642-12.575-12.575v-166.179c0-6.934 5.641-12.575 12.575-12.575h1.983v-25.899c0-14.016 11.362-25.377 25.377-25.377h-42.324c-14.015 0-25.377 11.362-25.377 25.377v216.345c0 3.333 1.094 6.574 3.113 9.226l11.68 15.335c2.02 2.652 3.113 5.893 3.113 9.226v166.171c0 11.212 9.089 20.302 20.302 20.302h42.324c-11.212 0-20.302-9.089-20.302-20.302z" fill="#465a61"/><g><path d="m83.972 266.614 4.256 18.536c1.059 4.611 5.162 7.879 9.893 7.879h39.14c4.704 0 8.792-3.232 9.877-7.81l4.41-18.605z" fill="#fea613"/></g><g><path d="m148.536 77.285v-16.182c0-2.803-2.272-5.075-5.076-5.075h-51.204c-2.803 0-5.075 2.272-5.075 5.075v16.183h61.355z" fill="#9facba"/></g><path d="m50.3 90.285h135.116v163.329h-135.116z" fill="#dff6fd"/><path d="m50.3 90.285h25.324v163.329h-25.324z" fill="#c8effe"/><g><g><g><path d="m59.983 339.245c-4.142 0-7.5-3.357-7.5-7.5v-8.152c0-4.143 3.358-7.5 7.5-7.5s7.5 3.357 7.5 7.5v8.152c0 4.143-3.358 7.5-7.5 7.5z" fill="#9facba"/></g><g><path d="m59.983 371.852c-4.142 0-7.5-3.357-7.5-7.5v-8.152c0-4.143 3.358-7.5 7.5-7.5s7.5 3.357 7.5 7.5v8.151c0 4.143-3.358 7.501-7.5 7.501z" fill="#9facba"/></g></g><g><g><path d="m175.733 339.245c-4.142 0-7.5-3.357-7.5-7.5v-8.152c0-4.143 3.358-7.5 7.5-7.5s7.5 3.357 7.5 7.5v8.152c0 4.143-3.358 7.5-7.5 7.5z" fill="#9facba"/></g><g><path d="m175.733 371.852c-4.142 0-7.5-3.357-7.5-7.5v-8.152c0-4.143 3.358-7.5 7.5-7.5s7.5 3.357 7.5 7.5v8.151c0 4.143-3.358 7.501-7.5 7.501z" fill="#9facba"/></g></g></g><g><g><path d="m68.222 402.13h-8.238c-4.142 0-7.5-3.357-7.5-7.5s3.358-7.5 7.5-7.5h8.238c4.142 0 7.5 3.357 7.5 7.5s-3.358 7.5-7.5 7.5z" fill="#9facba"/></g><g><path d="m104.059 402.13h-8.238c-4.142 0-7.5-3.357-7.5-7.5s3.358-7.5 7.5-7.5h8.238c4.142 0 7.5 3.357 7.5 7.5s-3.358 7.5-7.5 7.5z" fill="#9facba"/></g><g><path d="m139.896 402.13h-8.238c-4.142 0-7.5-3.357-7.5-7.5s3.358-7.5 7.5-7.5h8.238c4.142 0 7.5 3.357 7.5 7.5s-3.358 7.5-7.5 7.5z" fill="#9facba"/></g><g><path d="m175.733 402.13h-8.238c-4.142 0-7.5-3.357-7.5-7.5s3.358-7.5 7.5-7.5h8.238c4.142 0 7.5 3.357 7.5 7.5s-3.358 7.5-7.5 7.5z" fill="#9facba"/></g></g><g><g><path d="m68.222 428.914h-8.238c-4.142 0-7.5-3.357-7.5-7.5s3.358-7.5 7.5-7.5h8.238c4.142 0 7.5 3.357 7.5 7.5s-3.358 7.5-7.5 7.5z" fill="#9facba"/></g><g><path d="m104.059 428.914h-8.238c-4.142 0-7.5-3.357-7.5-7.5s3.358-7.5 7.5-7.5h8.238c4.142 0 7.5 3.357 7.5 7.5s-3.358 7.5-7.5 7.5z" fill="#9facba"/></g><g><path d="m139.896 428.914h-8.238c-4.142 0-7.5-3.357-7.5-7.5s3.358-7.5 7.5-7.5h8.238c4.142 0 7.5 3.357 7.5 7.5s-3.358 7.5-7.5 7.5z" fill="#9facba"/></g><g><path d="m175.733 428.914h-8.238c-4.142 0-7.5-3.357-7.5-7.5s3.358-7.5 7.5-7.5h8.238c4.142 0 7.5 3.357 7.5 7.5s-3.358 7.5-7.5 7.5z" fill="#9facba"/></g></g><g><g><path d="m68.222 455.699h-8.238c-4.142 0-7.5-3.357-7.5-7.5s3.358-7.5 7.5-7.5h8.238c4.142 0 7.5 3.357 7.5 7.5s-3.358 7.5-7.5 7.5z" fill="#9facba"/></g><g><path d="m104.059 455.699h-8.238c-4.142 0-7.5-3.357-7.5-7.5s3.358-7.5 7.5-7.5h8.238c4.142 0 7.5 3.357 7.5 7.5s-3.358 7.5-7.5 7.5z" fill="#9facba"/></g><g><path d="m139.896 455.699h-8.238c-4.142 0-7.5-3.357-7.5-7.5s3.358-7.5 7.5-7.5h8.238c4.142 0 7.5 3.357 7.5 7.5s-3.358 7.5-7.5 7.5z" fill="#9facba"/></g><g><path d="m175.733 455.699h-8.238c-4.142 0-7.5-3.357-7.5-7.5s3.358-7.5 7.5-7.5h8.238c4.142 0 7.5 3.357 7.5 7.5s-3.358 7.5-7.5 7.5z" fill="#9facba"/></g></g></g><g><g><path d="m446.141 295.579h-65.375l-1 1.148v37.829c0 1.25-1.017 2.267-2.267 2.267h-43.979c-1.25 0-2.267-1.017-2.267-2.267v-37.873l-1-1.104h-65.375c-2.803 0-5.075 2.272-5.075 5.075v181.262c0 2.803 2.272 5.075 5.075 5.075h181.262c2.803 0 5.075-2.272 5.075-5.075v-181.262c.001-2.803-2.271-5.075-5.074-5.075z" fill="#faea5e"/><g><path d="m302.429 481.916v-181.262c0-2.803 2.272-5.075 5.075-5.075h-42.625c-2.803 0-5.075 2.272-5.075 5.075v181.262c0 2.803 2.272 5.075 5.075 5.075h42.625c-2.803 0-5.075-2.272-5.075-5.075z" fill="#ffd600"/></g><g><path d="m330.254 295.579v38.977c0 1.804 1.462 3.266 3.266 3.266h43.979c1.804 0 3.266-1.462 3.266-3.266v-38.977z" fill="#fd4755"/></g><g><path d="m350.957 334.555v-38.977h-20.703v38.977c0 1.804 1.462 3.266 3.266 3.266h20.703c-1.804.001-3.266-1.461-3.266-3.266z" fill="#fb2b3a"/></g></g><g fill="#fea613"><path d="m329.274 396.542c3.137 2.705 7.873 2.355 10.578-.779l8.158-9.456v34.045c0 4.143 3.358 7.5 7.5 7.5s7.5-3.357 7.5-7.5v-34.045l8.158 9.456c1.483 1.719 3.577 2.601 5.682 2.601 1.735 0 3.479-.599 4.896-1.821 3.136-2.706 3.485-7.441.779-10.578l-21.336-24.731c-1.425-1.651-3.498-2.601-5.679-2.601s-4.254.949-5.679 2.601l-21.336 24.731c-2.706 3.136-2.357 7.871.779 10.577z"/><path d="m378.647 440.294h-46.275c-4.142 0-7.5 3.357-7.5 7.5s3.358 7.5 7.5 7.5h46.275c4.142 0 7.5-3.357 7.5-7.5s-3.357-7.5-7.5-7.5z"/></g></g></g><path d="m50.3 234.683h135.116v18.931h-135.116z" fill="#fff"/><g><path d="m96.434 139.265h-24.363c-1.682 0-3.045-1.363-3.045-3.045v-24.362c0-1.682 1.363-3.045 3.045-3.045h24.362c1.682 0 3.045 1.363 3.045 3.045v24.362c.001 1.681-1.363 3.045-3.044 3.045z" fill="#01c0fa"/></g><g><path d="m96.434 194.079h-24.363c-1.682 0-3.045-1.363-3.045-3.045v-24.362c0-1.682 1.363-3.045 3.045-3.045h24.362c1.682 0 3.045 1.363 3.045 3.045v24.362c.001 1.682-1.363 3.045-3.044 3.045z" fill="#68ca44"/></g><g><circle cx="191.194" cy="59.58" fill="#9facba" r="7.5"/></g><g><circle cx="171.194" cy="59.58" fill="#9facba" r="7.5"/></g></g><g><path d="m186.841 267.614h-137.966c-6.934 0-12.575-5.642-12.575-12.575v-166.179c0-6.934 5.641-12.575 12.575-12.575h137.966c6.934 0 12.575 5.642 12.575 12.575v166.179c.001 6.934-5.641 12.575-12.575 12.575zm-135.541-15h133.116v-161.329h-133.116z" fill="#8d9ca8"/></g><g><g><path d="m151.037 371.852h-66.356c-2.761 0-5-2.239-5-5v-45.759c0-2.761 2.239-5 5-5h66.356c2.761 0 5 2.239 5 5v45.759c0 2.761-2.239 5-5 5z" fill="#faea5e"/></g></g><path d="m100.644 366.852v-45.759c0-2.761 2.239-5 5-5h-20.963c-2.761 0-5 2.239-5 5v45.759c0 2.761 2.239 5 5 5h20.963c-2.761 0-5-2.239-5-5z" fill="#ffd600"/></g></svg>