<svg id="Layer_5" enable-background="new 0 0 64 64" height="512" viewBox="0 0 64 64" width="512" xmlns="http://www.w3.org/2000/svg"><path d="m2 32v12c0 2.21 1.79 4 4 4h52c2.21 0 4-1.79 4-4v-12z" fill="#ccd1d9"/><path d="m2 28h60v4h-60z" fill="#ffeaa7"/><path d="m58.52 5.39c-.3-1.95-1.98-3.39-3.95-3.39h-45.14c-1.97 0-3.65 1.44-3.95 3.39l-3.48 22.61h60z" fill="#ccd1d9"/><path d="m14 22c-2.21 0-4-1.79-4-4v-16h44v16c0 2.21-1.79 4-4 4z" fill="#e6e9ed"/><path d="m50 7v2c0 .55-.45 1-1 1h-4c-.55 0-1-.45-1-1v-2c0-.55.45-1 1-1h4c.55 0 1 .45 1 1z" fill="#5cd6b3"/><path d="m40 7v2c0 .55-.45 1-1 1h-4c-.55 0-1-.45-1-1v-2c0-.55.45-1 1-1h4c.55 0 1 .45 1 1z" fill="#ff826e"/><path d="m40 15v2c0 .55-.45 1-1 1h-4c-.55 0-1-.45-1-1v-2c0-.55.45-1 1-1h4c.55 0 1 .45 1 1z" fill="#ff826e"/><circle cx="48" cy="16" fill="#838f9b" r="2"/><path d="m14 6h16v4h-16z" fill="#69d6f4"/><circle cx="12" cy="40" fill="#ff826e" r="4"/><path d="m24 38h4v6h-4z" fill="#969faa"/><path d="m52 38h4v6h-4z" fill="#969faa"/><path d="m28 38h24v6 4 14h-24v-14-4z" fill="#fcd770"/><path d="m31 5h-18v6h18zm-2 4h-14v-2h14z"/><path d="m48 13c-1.654 0-3 1.346-3 3s1.346 3 3 3 3-1.346 3-3-1.346-3-3-3zm0 4c-.551 0-1-.449-1-1s.449-1 1-1 1 .449 1 1-.449 1-1 1z"/><path d="m13 13h2v2h-2z"/><path d="m25 13h2v2h-2z"/><path d="m21 13h2v2h-2z"/><path d="m29 13h2v2h-2z"/><path d="m17 13h2v2h-2z"/><path d="m29 17h2v2h-2z"/><path d="m25 17h2v2h-2z"/><path d="m17 17h2v2h-2z"/><path d="m21 17h2v2h-2z"/><path d="m13 17h2v2h-2z"/><path d="m35 11h4c1.103 0 2-.897 2-2v-2c0-1.103-.897-2-2-2h-4c-1.103 0-2 .897-2 2v2c0 1.103.897 2 2 2zm0-4h4l.001 2h-4.001z"/><path d="m35 19h4c1.103 0 2-.897 2-2v-2c0-1.103-.897-2-2-2h-4c-1.103 0-2 .897-2 2v2c0 1.103.897 2 2 2zm0-4h4l.001 2h-4.001z"/><path d="m45 11h4c1.103 0 2-.897 2-2v-2c0-1.103-.897-2-2-2h-4c-1.103 0-2 .897-2 2v2c0 1.103.897 2 2 2zm0-4h4l.001 2h-4.001z"/><path d="m59.51 5.239c-.378-2.456-2.456-4.239-4.942-4.239h-45.136c-2.486 0-4.564 1.783-4.942 4.24l-3.478 22.608-.012 16.152c0 2.757 2.243 5 5 5h21v14h26v-14h5c2.757 0 5-2.243 5-5v-16zm-48.51-2.239h42v15c0 1.654-1.346 3-3 3h-36c-1.654 0-3-1.346-3-3zm-4.534 2.544c.205-1.329 1.24-2.321 2.534-2.505v14.961c0 2.757 2.243 5 5 5h36c2.757 0 5-2.243 5-5v-14.961c1.294.185 2.329 1.177 2.534 2.505l3.3 21.456h-57.668zm54.534 23.456v2h-58v-2zm-34 14h-2v-4h2zm2 18v-22h22v22zm24-22h2v4h-2zm5 8h-5v-2h4v-8h-34v8h4v2h-21c-1.654 0-3-1.346-3-3v-11h58v11c0 1.654-1.346 3-3 3z"/><path d="m31 41h2v18h-2z"/><path d="m35 57h2v2h-2z"/><path d="m35 41h2v14h-2z"/><path d="m39 57h2v2h-2z"/><path d="m39 41h2v14h-2z"/><path d="m43 57h2v2h-2z"/><path d="m43 41h2v14h-2z"/><path d="m47 41h2v18h-2z"/><path d="m12 35c-2.757 0-5 2.243-5 5s2.243 5 5 5 5-2.243 5-5-2.243-5-5-5zm0 8c-1.654 0-3-1.346-3-3 0-1.302.839-2.402 2-2.816v3.816h2v-3.816c1.161.414 2 1.514 2 2.816 0 1.654-1.346 3-3 3z"/></svg>