<svg id="_x33_0" enable-background="new 0 0 62 62" height="512" viewBox="0 0 62 62" width="512" xmlns="http://www.w3.org/2000/svg"><g><g><g><path d="m61 35v6h-60v-6h10 4 32 4z" fill="#969faa"/></g><g><path d="m61 21v14h-10v-7c0-.55-.45-1-1-1h-3v-8h12c1.1 0 2 .9 2 2z" fill="#aab2bd"/></g><g><path d="m15 19v8h-3c-.55 0-1 .45-1 1v7h-10v-14c0-1.1.9-2 2-2z" fill="#aab2bd"/></g><g><path d="m4.41 60.11-3.07-4.61c-.22-.32-.34-.71-.34-1.11v-13.39h60v13.39c0 .4-.12.79-.34 1.11l-3.07 4.61c-.37.56-.99.89-1.66.89h-.93v-12c0-1.1-.9-2-2-2h-44c-1.1 0-2 .9-2 2v12h-.93c-.67 0-1.29-.33-1.66-.89z" fill="#ccd1d9"/></g><g><path d="m55 49v12h-48v-12c0-1.1.9-2 2-2h44c1.1 0 2 .9 2 2z" fill="#e6e9ed"/></g><g><circle cx="21" cy="54" fill="#fcd770" r="2"/></g><g><circle cx="13" cy="54" fill="#fcd770" r="2"/></g><g><circle cx="30" cy="54" fill="#ff826e" r="3"/></g><g><circle cx="40" cy="54" fill="#ff826e" r="3"/></g><g><path d="m51 28v7h-4v-8h3c.55 0 1 .45 1 1z" fill="#e6e9ed"/></g><g><path d="m15 27v8h-4v-7c0-.55.45-1 1-1z" fill="#e6e9ed"/></g><g><path d="m47 35h-32v-8-8-12h5c.55 0 1-.45 1-1v-5h25c.55 0 1 .45 1 1v17 8z" fill="#f0d0b4"/></g><g><path d="m43 14v2c0 .55-.45 1-1 1h-12c-.55 0-1-.45-1-1v-2c0-.55.45-1 1-1h12c.55 0 1 .45 1 1z" fill="#fcd770"/></g><g><path d="m21 1v5c0 .55-.45 1-1 1h-5v-.59c0-.26.11-.52.29-.7l4.42-4.42c.18-.18.44-.29.7-.29z" fill="#b4dd7f"/></g></g><g><path d="m59 18h-11v-16c0-1.103-.897-2-2-2h-25.586c-.526 0-1.042.213-1.414.586l-4.414 4.414c-.378.378-.586.88-.586 1.414v11.586h-11c-1.654 0-3 1.346-3 3v33.395c0 .593.174 1.168.504 1.664l3.07 4.605c.558.836 1.491 1.336 2.496 1.336h49.86c1.005 0 1.938-.5 2.496-1.336l3.07-4.606c.33-.495.504-1.07.504-1.664v-33.394c0-1.654-1.346-3-3-3zm0 2c.552 0 1 .449 1 1v13h-8v-6c0-1.103-.897-2-2-2h-2v-6zm-45 14h-2v-6h2zm46 2v4h-58v-4zm-10-2h-2v-6h2zm-4 0h-30v-26h4c1.103 0 2-.897 2-2v-4h24zm-26-31.586v3.586h-3.586zm-17 17.586h11v6h-2c-1.103 0-2 .897-2 2v6h-8v-13c0-.551.448-1 1-1zm51 40h-46v-11c0-.551.448-1 1-1h44c.552 0 1 .449 1 1zm5.832-5.051-3.07 4.605c-.172.259-.454.415-.762.437v-10.991c0-1.654-1.346-3-3-3h-44c-1.654 0-3 1.346-3 3v10.991c-.307-.022-.589-.178-.762-.437l-3.07-4.605c-.109-.165-.168-.357-.168-.554v-12.395h58v12.395c0 .197-.059.389-.168.554z"/><path d="m40 50c-2.206 0-4 1.794-4 4s1.794 4 4 4 4-1.794 4-4-1.794-4-4-4zm0 6c-1.103 0-2-.897-2-2s.897-2 2-2 2 .897 2 2-.897 2-2 2z"/><path d="m30 50c-2.206 0-4 1.794-4 4s1.794 4 4 4 4-1.794 4-4-1.794-4-4-4zm0 6c-1.103 0-2-.897-2-2s.897-2 2-2 2 .897 2 2-.897 2-2 2z"/><path d="m21 51c-1.654 0-3 1.346-3 3s1.346 3 3 3 3-1.346 3-3-1.346-3-3-3zm0 4c-.552 0-1-.449-1-1s.448-1 1-1 1 .449 1 1-.448 1-1 1z"/><path d="m13 51c-1.654 0-3 1.346-3 3s1.346 3 3 3 3-1.346 3-3-1.346-3-3-3zm0 4c-.552 0-1-.449-1-1s.448-1 1-1 1 .449 1 1-.448 1-1 1z"/><path d="m46 51h5v2h-5z"/><path d="m46 55h5v2h-5z"/><path d="m30 12c-1.103 0-2 .897-2 2v2c0 1.103.897 2 2 2h12c1.103 0 2-.897 2-2v-2c0-1.103-.897-2-2-2zm0 4v-2h12l.001 2z"/><path d="m18 12h8v2h-8z"/><path d="m18 16h8v2h-8z"/><path d="m25 4h2v2h-2z"/><path d="m29 4h14v2h-14z"/><path d="m25 8h18v2h-18z"/><path d="m18 20h2v12h-2z"/><path d="m21 20h2v12h-2z"/><path d="m30 20h2v12h-2z"/><path d="m42 20h2v12h-2z"/><path d="m33 20h2v12h-2z"/><path d="m24 20h2v9h-2z"/><path d="m24 30h2v2h-2z"/><path d="m27 20h2v9h-2z"/><path d="m27 30h2v2h-2z"/><path d="m36 20h2v9h-2z"/><path d="m36 30h2v2h-2z"/><path d="m39 20h2v9h-2z"/><path d="m39 30h2v2h-2z"/></g></g></svg>