<svg id="Filled" height="512" viewBox="0 0 512 512" width="512" xmlns="http://www.w3.org/2000/svg"><path d="m264 424h128l56 64h40v-128l-40-48v-48a64 64 0 0 0 -64-64h-40a32 32 0 0 0 -32 32 32 32 0 0 0 32 32h-80z" fill="#efba92"/><path d="m297.869 376h22.131a32 32 0 0 0 32-32v-200h-128l17.143 88 25.437 118.7a32 32 0 0 0 31.289 25.3z" fill="#596063"/><g fill="#f7cca9"><rect height="48" rx="24" width="72" x="216" y="232"/><rect height="48" rx="24" width="96" x="216" y="280"/><rect height="48" rx="24" width="88" x="216" y="328"/><rect height="48" rx="24" width="64" x="232" y="376"/></g><path d="m448 264a64 64 0 0 0 -64-64h-40a32 32 0 0 0 -32 32 32 32 0 0 0 32 32z" fill="#efba92"/><path d="m344 152h-224l-24-128 251.969 28.5a32 32 0 0 1 28.031 31.749v35.751a32 32 0 0 1 -32 32z" fill="#6a7073"/><path d="m174.59 152h-54.59l-24-128 57.14 6.46z" fill="#4f5659"/><path d="m441.979 493.268a8 8 0 0 0 6.021 2.732h40a8 8 0 0 0 8-8v-128a8 8 0 0 0 -1.854-5.122l-38.146-45.778v-45.1a72.081 72.081 0 0 0 -72-72h-24v-35.35a40.051 40.051 0 0 0 24-36.65v-35.751a40.085 40.085 0 0 0 -35.132-39.7l-251.968-28.498a8 8 0 0 0 -8.762 9.423l24 128a8 8 0 0 0 7.862 6.526h97.533l13.967 65.156a31.971 31.971 0 0 0 -12.632 54.844 31.934 31.934 0 0 0 0 48 31.969 31.969 0 0 0 10.556 54.2 31.984 31.984 0 0 0 26.576 49.8h65.61a80.136 80.136 0 0 0 78.39 64 8 8 0 0 0 0-16 64.116 64.116 0 0 1 -61.975-48h50.345zm-315.339-349.268-20.782-110.834 39.1 4.422 21.284 106.412zm55.918 0-20.9-104.524 185.319 20.958a24.039 24.039 0 0 1 21.023 23.815v35.751a24.027 24.027 0 0 1 -24 24zm57.442 96h16a16 16 0 0 1 0 32h-16a16 16 0 0 1 0-32zm32 176h-16a16 16 0 0 1 0-32h16a16 16 0 0 1 0 32zm8-48h-40a16 16 0 0 1 0-32h40a16 16 0 0 1 0 32zm8-48h-48a16 16 0 0 1 0-32h48a16 16 0 0 1 0 32zm32 96h-20.3a31.885 31.885 0 0 0 0-32h20.3zm0-48h-12.3a31.9 31.9 0 0 0 -3.217-36.58 31.993 31.993 0 0 0 -16.483-59.42h-4.3a31.976 31.976 0 0 0 -27.7-48h-8.39l-13.71-64h110.1v32a40 40 0 0 0 -8.026 79.19c.25 9.667 1.68 27.047 8.026 43.861v28.949a24.028 24.028 0 0 1 -24 24zm16 48v-35.35a40.051 40.051 0 0 0 24-36.65v-2.649a57.567 57.567 0 0 0 11.884 9.509v-.007a7.992 7.992 0 1 0 8.224-13.706v-.007c-9.591-5.754-15.929-15.065-20.116-25.132v-.008c-6.066-14.588-7.609-30.757-7.958-40h23.966a8 8 0 0 0 0-16h-32a24 24 0 0 1 0-48h40a56.064 56.064 0 0 1 56 56v48a8 8 0 0 0 1.854 5.122l38.146 45.778v117.1h-28.37l-53.609-61.268a8 8 0 0 0 -6.021-2.732z"/><path d="m73.373 64.971a8 8 0 0 0 -11.314 0 48 48 0 0 0 0 67.882 8 8 0 0 0 11.314-11.314 32 32 0 0 1 0-45.255 8 8 0 0 0 0-11.313z"/><path d="m50.745 53.657a8 8 0 0 0 -11.313-11.314 80.091 80.091 0 0 0 0 113.137 8 8 0 0 0 11.313-11.313 64.074 64.074 0 0 1 0-90.51z"/></svg>