<svg id="Capa_1" enable-background="new 0 0 512.001 512.001" height="512" viewBox="0 0 512.001 512.001" width="512" xmlns="http://www.w3.org/2000/svg"><g><g><g><path d="m429.565 504.501h-347.13c-16.569 0-30-13.431-30-30v-127.152c0-16.569 13.431-30 30-30h347.13c16.569 0 30 13.431 30 30v127.151c0 16.569-13.431 30.001-30 30.001z" fill="#f58a97"/><path d="m429.565 317.349h-30c16.569 0 30 13.431 30 30v127.151c0 16.569-13.431 30-30 30h30c16.569 0 30-13.431 30-30v-127.151c0-16.568-13.431-30-30-30z" fill="#f07281"/></g><g><g><path d="m332.505 234.688 24.538-32.877c7.581-10.158 22.435-11.894 33.177-3.877 10.742 8.017 13.304 22.751 5.722 32.909l-52.809 70.77c-29.049 38.929-79.809 54.806-125.863 39.37-35.829-12.009-63.23-41.211-72.939-77.731l-31.911-120.037c-5.298-17.399 19.808-49.471 36.231-28.361l37.92 51.558c3.366 4.576 10.1 4.877 13.393.599l113.741-150.594c7.582-10.158 22.436-11.894 33.178-3.877 10.742 8.017 13.304 22.751 5.722 32.909l-74.741 100.143 74.606 62.345z" fill="#ffdfcf"/><g fill="#ffcebf"><path d="m271.836 145.593c3.794 0 7.365-1.791 9.634-4.831l71.135-95.312c7.582-10.158 5.02-24.892-5.722-32.909-9.285-6.93-21.642-6.573-29.72.212 10.506 8.063 12.957 22.628 5.442 32.697l-60.403 80.932c-5.917 7.928-.259 19.211 9.634 19.211z"/><path d="m390.22 197.934c-9.285-6.93-21.642-6.572-29.72.212 10.505 8.062 12.957 22.628 5.442 32.697l-52.809 70.77c-18.509 24.804-45.833 40.25-75.137 44.2 39.914 5.387 80.399-11.047 105.137-44.2l52.809-70.77c7.582-10.158 5.02-24.892-5.722-32.909z"/><path d="m186.572 166.411-37.921-51.558c-9.022-11.597-20.665-7.143-28.448 2.111l31.202 43.582c8.102 11.315 23.833 13.939 35.167 5.865z"/></g><path d="m274.45 150.166 16.788-22.494c7.582-10.158 22.436-11.894 33.177-3.877 10.742 8.017 13.304 22.751 5.722 32.909l-19.712 26.412z" fill="#ffdfcf"/><path d="m324.416 123.796c-9.285-6.93-21.642-6.573-29.72.212 10.506 8.063 12.958 22.628 5.442 32.697l-11.066 14.711c-3.661 4.867-3.117 11.699 1.267 15.926 5.226 5.039 13.687 4.35 18.029-1.468l21.77-29.169c7.582-10.158 5.02-24.892-5.722-32.909z" fill="#ffcebf"/><path d="m300.187 196.836 23.111-30.965c7.582-10.158 22.436-11.894 33.177-3.877 10.742 8.017 13.304 22.751 5.722 32.909l-23.537 31.537z" fill="#ffdfcf"/><path d="m356.475 161.994c-9.285-6.93-21.642-6.573-29.72.212 10.506 8.063 12.957 22.628 5.442 32.697l-11.594 15.482c-3.92 5.235-2.944 12.642 2.199 16.681 5.319 4.178 13.036 3.154 17.082-2.266l22.313-29.897c7.582-10.158 5.02-24.892-5.722-32.909z" fill="#ffcebf"/></g></g></g><path d="m174.176 82.026 26.362-2.16c4.128-.338 7.201-3.959 6.862-8.087-.339-4.129-3.985-7.2-8.087-6.863l-26.362 2.16c-4.128.338-7.201 3.959-6.862 8.087.341 4.148 4.006 7.203 8.087 6.863zm224.57 286.392c-3.472-2.258-8.116-1.278-10.377 2.194l-16.936 26.016-17.115-26.21c-2.265-3.469-6.913-4.444-10.38-2.179-3.468 2.265-4.443 6.912-2.179 10.38l22.178 33.964-.086 35.185c-.01 4.142 3.34 7.508 7.481 7.519h.019c4.134 0 7.49-3.346 7.5-7.481l.086-35.211 22.001-33.799c2.261-3.472 1.279-8.118-2.192-10.378zm-216.271-334.134 23.936 20.311c3.144 2.668 7.88 2.305 10.571-.866 2.68-3.158 2.292-7.891-.866-10.571l-23.936-20.311c-3.157-2.679-7.891-2.292-10.571.866s-2.292 7.891.866 10.571zm42.67.192c.321 3.92 3.602 6.888 7.466 6.888 4.355 0 7.852-3.755 7.483-8.113l-2.16-26.363c-.339-4.13-3.981-7.203-8.087-6.863-4.129.338-7.201 3.959-6.862 8.087zm204.415 275.375h-83.347c.995-1.23 1.978-2.476 2.931-3.753l52.809-70.769c10.215-13.591 6.105-33.44-7.247-43.406-6.302-4.704-13.723-6.799-20.898-6.471 1.353-10.823-3.2-22.269-12.847-29.469-5.912-4.413-12.809-6.529-19.564-6.504 2.43-11.92-2.711-24.392-12.494-31.694-4.822-3.599-10.402-5.762-16.182-6.356l45.896-61.494c10.043-13.457 6.791-32.929-7.247-43.406-14.038-10.479-33.632-8.054-43.649 5.367l-48.154 63.759c-2.496 3.305-1.84 8.008 1.465 10.505 3.308 2.497 8.011 1.84 10.505-1.465l48.181-63.792c5.096-6.829 15.27-7.883 22.682-2.353 7.41 5.53 9.293 15.585 4.197 22.413l-78.157 104.718c-2.478 3.319-1.795 8.019 1.524 10.497s8.02 1.795 10.497-1.525l16.788-22.494c5.24-7.08 15.717-7.551 22.681-2.353 7.015 5.236 9.474 15.351 4.197 22.413l-29.951 40.131c-2.478 3.319-1.795 8.019 1.524 10.497 3.319 2.477 8.02 1.795 10.497-1.525l23.11-30.965c5.095-6.828 15.27-7.884 22.682-2.353 7.41 5.53 9.293 15.585 4.197 22.413l-29.692 39.784c-2.478 3.319-1.795 8.019 1.524 10.497 3.32 2.478 8.02 1.796 10.497-1.525l24.537-32.876c5.096-6.828 15.271-7.883 22.681-2.353 7.016 5.236 9.474 15.351 4.197 22.414l-52.809 70.77c-27.177 36.419-74.381 51.185-117.469 36.744-33.554-11.246-58.874-37.862-68.074-72.546l-31.91-120.037c-.022-.086-.047-.173-.073-.258-2.208-7.249 4.5-20.297 12.593-24.494 4.104-2.128 7.247-1.277 10.485 2.849l37.856 51.47c6.019 8.303 19.098 9.017 25.419.676l44.37-58.746c2.497-3.305 1.841-8.008-1.464-10.505-3.306-2.496-8.01-1.841-10.505 1.465l-44.329 58.691c-.298.309-.987.072-1.407-.469l-37.921-51.558c-.04-.054-.081-.108-.122-.162-7.712-9.912-18.661-12.54-29.288-7.028-14.548 7.544-24.27 27.931-20.08 42.038l31.88 119.921c4.416 16.611 12.222 31.755 22.672 44.673h-77.313c-20.678 0-37.5 16.822-37.5 37.5v127.15c0 20.678 16.822 37.5 37.5 37.5h288.412c4.143 0 7.5-3.358 7.5-7.5s-3.357-7.5-7.5-7.5h-288.412c-12.406 0-22.5-10.093-22.5-22.5v-127.15c0-12.407 10.094-22.5 22.5-22.5h91.787c11.707 10.182 25.451 18.145 40.659 23.243 12.591 4.22 25.488 6.258 38.233 6.258 28.77 0 56.754-10.391 78.653-29.5h97.787c12.406 0 22.5 10.093 22.5 22.5v127.15c0 12.407-10.094 22.5-22.5 22.5h-23.707c-4.143 0-7.5 3.358-7.5 7.5s3.357 7.5 7.5 7.5h23.707c20.678 0 37.5-16.822 37.5-37.5v-127.15c0-20.68-16.822-37.502-37.5-37.502zm-280.966 72.048c4.143 0 7.5-3.358 7.5-7.5s-3.357-7.5-7.5-7.5h-31.247c-4.143 0-7.5 3.358-7.5 7.5v73.388c0 4.142 3.357 7.5 7.5 7.5h31.247c4.143 0 7.5-3.358 7.5-7.5s-3.357-7.5-7.5-7.5h-23.747v-21.526h21.443c4.143 0 7.5-3.358 7.5-7.5s-3.357-7.5-7.5-7.5h-21.443v-21.862zm69.989-9.57c-1.393-3.504-4.713-5.767-8.462-5.767h-.011c-3.753.004-7.073 2.275-8.459 5.786-.062.156-26.723 72.681-26.785 72.851-1.43 3.888.563 8.198 4.451 9.627 3.889 1.429 8.198-.564 9.627-4.452l4.85-13.19h32.454l4.797 13.169c1.429 3.939 5.805 5.868 9.614 4.48 3.892-1.417 5.897-5.722 4.479-9.614 0-.103-26.515-72.789-26.555-72.89zm-19.274 49.856 10.787-29.339 10.688 29.339zm96.313 18.102c-7.411 0-14.572-3.128-19.154-8.367-2.729-3.118-7.467-3.434-10.583-.707-3.118 2.727-3.435 7.465-.708 10.583 7.39 8.447 18.771 13.491 30.445 13.491 14.187 0 26.186-9.224 28.531-21.933 1.777-9.635-2.457-22.274-19.676-28.854-8.951-3.421-17.271-7.151-19.594-8.207-1.957-1.543-2.884-4.004-2.49-6.687.238-1.619 1.366-5.562 6.696-7.226 10.679-3.334 20.481 4.762 20.7 4.945 3.123 2.69 7.838 2.355 10.55-.758 2.72-3.124 2.393-7.861-.73-10.582-.651-.566-16.146-13.806-34.988-7.925-9.195 2.87-15.735 10.29-17.068 19.366-1.241 8.447 2.533 18.557 10.398 22.19.41.189 10.174 4.692 21.173 8.895 7.43 2.839 11.176 7.257 10.278 12.12-.863 4.682-5.987 9.656-13.78 9.656z"/></g></svg>